<?xml version="1.0" encoding="utf-8"?><!DOCTYPE svg PUBLIC "-//W3C//DTD SVG 1.1//EN" "http://www.w3.org/Graphics/SVG/1.1/DTD/svg11.dtd"><svg id="_5" width="128" height="128" style="width:128px;height:128px;" version="1.1" xmlns="http://www.w3.org/2000/svg" viewBox="0 0 2048 2048" enable-background="new 0 0 2048 2048" xml:space="preserve"><path fill="#fff" d="M1559.71 0 q-14.05 0 -18.73 15.22 q-28.11 135.83 -127.64 236.53 q-99.53 100.7 -236.53 129.98 q-7.03 0 -12.3 4.69 q-5.26 4.69 -5.26 14.06 q0 15.22 17.56 19.9 q137 28.11 236.53 126.47 q99.53 98.36 127.64 237.7 q9.36 14.05 18.73 14.05 q10.54 0 15.22 -4.69 q4.68 -4.68 4.68 -9.37 q28.1 -137 127.63 -236.53 q99.53 -99.53 238.88 -127.64 q4.68 -2.34 9.36 -7.61 q4.69 -5.27 4.69 -12.29 q0 -9.37 -4.69 -14.06 q-4.68 -4.69 -9.36 -4.69 q-137 -29.27 -237.7 -129.98 q-100.71 -100.7 -128.81 -236.53 q-2.34 -15.22 -19.91 -15.22 ZM497.66 100.7 q-112.42 0 -206.1 57.96 q-93.68 57.97 -148.71 154.57 q-55.03 96.6 -55.03 212.53 l0 1096.01 q0 114.76 55.03 213.12 q55.03 98.36 148.71 155.74 q93.68 57.38 206.1 57.38 l901.63 0 q113.58 0 206.67 -57.38 q93.1 -57.38 148.13 -155.74 q55.04 -98.36 55.04 -213.12 l0 -640.51 q0 -31.62 -21.08 -53.28 q-21.08 -21.66 -52.69 -21.66 q-31.62 0 -54.45 21.66 q-22.84 21.66 -22.84 53.28 l0 640.51 q0 73.77 -34.54 136.41 q-34.54 62.64 -94.26 99.53 q-59.72 36.88 -129.98 36.88 l-901.63 0 q-69.09 0 -129.4 -36.88 q-60.31 -36.88 -94.85 -99.53 q-34.54 -62.64 -34.54 -136.41 l0 -1096.01 q0 -74.94 34.54 -137 q34.55 -62.06 94.85 -99.53 q60.31 -37.47 129.4 -37.47 l508.19 0 q33.96 0 55.62 -22.83 q21.66 -22.84 21.66 -53.29 q0 -31.61 -22.83 -53.27 q-22.83 -21.67 -54.45 -21.67 l-508.19 0 ZM526.93 1331.38 q-31.62 0 -54.45 22.83 q-22.83 22.83 -22.83 53.28 q0 31.61 22.83 54.44 q22.83 22.84 54.45 22.84 l844.26 0 q32.78 0 54.44 -22.84 q21.66 -22.84 21.66 -54.44 q0 -30.45 -22.83 -53.28 q-22.84 -22.83 -53.28 -22.83 l-844.26 0 ZM526.93 935.59 q-31.62 0 -54.45 22.83 q-22.83 22.84 -22.83 54.46 q0 30.44 22.83 53.27 q22.83 22.84 54.45 22.84 l572.6 0 q33.95 0 55.62 -22.84 q21.66 -22.84 21.66 -53.27 q0 -31.62 -22.84 -54.46 q-22.83 -22.83 -54.44 -22.83 l-572.6 0 Z"/></svg>