<?xml version="1.0" encoding="utf-8"?><!DOCTYPE svg PUBLIC "-//W3C//DTD SVG 1.1//EN" "http://www.w3.org/Graphics/SVG/1.1/DTD/svg11.dtd"><svg id="_4" width="128" height="128" style="width:128px;height:128px;" version="1.1" xmlns="http://www.w3.org/2000/svg" viewBox="0 0 2048 2048" enable-background="new 0 0 2048 2048" xml:space="preserve"><path fill="#fff" d="M408.3 16.2 q-6.67 -13.34 -15.01 -15.56 q-8.34 -2.23 -15.01 3.33 q-6.67 5.56 -8.89 12.23 q-24.46 132.29 -122.84 229.01 q-98.38 96.72 -231.78 126.72 q-10.01 2.22 -13.34 11.11 q-3.33 8.9 1.12 17.24 q4.45 8.34 12.23 8.34 q133.4 26.68 231.78 124.5 q98.38 97.83 122.84 230.12 q4.45 11.11 13.89 15 q9.45 3.89 16.12 -1.11 q6.67 -5 8.9 -13.89 q30.01 -134.52 125.61 -231.23 q95.61 -96.71 229 -123.39 q10 -2.23 14.45 -10.56 q4.45 -8.33 0 -16.12 q-4.45 -7.79 -14.45 -10 q-131.18 -30.01 -227.89 -126.72 q-96.71 -96.72 -126.72 -229.01 ZM1831.23 1200.12 q-2.23 -8.89 -6.68 -10 q-4.44 -1.12 -7.78 2.22 q-3.34 3.34 -6.68 7.78 q-15.56 77.82 -71.14 133.4 q-55.59 55.58 -135.63 74.48 q-6.66 2.22 -7.77 6.67 q-1.12 4.45 1.11 8.89 q2.23 4.44 6.66 4.44 q77.82 18.9 134.52 74.48 q56.69 55.58 72.25 131.18 q3.34 6.67 7.79 8.89 q4.44 2.22 8.89 0 q4.45 -2.22 4.45 -8.89 q17.78 -77.82 73.92 -133.41 q56.14 -55.58 132.85 -72.25 q6.67 0 8.89 -5.56 q2.22 -5.56 0 -10 q-2.22 -4.45 -8.89 -4.45 q-76.71 -16.67 -132.85 -73.37 q-56.14 -56.69 -73.92 -134.52 ZM1364.33 1630.33 q-2.23 -8.89 -7.78 -7.78 q-5.56 1.11 -7.79 7.78 q-8.89 55.59 -48.91 95.05 q-40.02 39.46 -96.71 51.69 q-7.79 2.23 -6.12 7.79 q1.67 5.56 6.12 5.56 q54.47 11.12 95.6 52.25 q41.13 41.13 50.02 93.38 q2.23 8.89 7.79 7.78 q5.55 -1.11 7.78 -7.78 q11.11 -54.47 51.13 -94.49 q40.02 -40.02 94.5 -51.14 q6.67 0 6.67 -5.56 q0 -5.56 -6.67 -7.79 q-54.48 -12.23 -94.5 -51.69 q-40.02 -39.46 -51.13 -95.05 ZM1664.48 189.62 q-63.37 -65.59 -154.53 -65.59 q-91.15 0 -156.74 65.59 l-1049.41 1051.63 q-23.34 18.9 -38.91 56.7 l-127.84 319.04 q-26.68 68.93 1.67 133.4 q28.35 64.47 91.72 93.38 q63.37 28.9 132.29 1.11 l319.05 -130.06 q35.57 -15.56 58.91 -36.69 l1049.41 -1051.63 q43.36 -43.35 58.37 -100.05 q15.01 -56.69 0 -112.28 q-15 -55.58 -58.37 -98.93 l-125.61 -125.62 ZM1418.8 791.03 l-792.62 787.05 l-317.93 130.07 q-11.12 2.22 -20.57 -1.12 q-9.45 -3.33 -13.9 -13.34 q-4.44 -10.01 0.01 -20.01 l132.28 -330.17 l782.61 -780.38 l230.12 227.89 ZM1457.71 294.11 q22.23 -22.23 52.24 -22.23 q30.02 0 50.03 22.23 l125.62 125.62 q22.23 20.01 22.23 51.14 q0 31.13 -22.23 51.13 l-168.97 162.31 l-222.34 -225.67 l163.42 -164.53 Z"/></svg>