<?xml version="1.0" encoding="utf-8"?><!DOCTYPE svg PUBLIC "-//W3C//DTD SVG 1.1//EN" "http://www.w3.org/Graphics/SVG/1.1/DTD/svg11.dtd"><svg id="uniF0000" width="128" height="128" style="width:128px;height:128px;" version="1.1" xmlns="http://www.w3.org/2000/svg" viewBox="0 0 2048 2048" enable-background="new 0 0 2048 2048" xml:space="preserve"><path fill="#fff" d="M1658.86 1902.86 l0 -80 q-3.43 -165.72 -67.43 -318.29 q-64 -152.57 -186.29 -266.86 q-105.14 -100.57 -248 -201.14 q152 -105.14 248 -201.14 q122.29 -114.29 186.29 -264.57 q64 -150.29 67.43 -318.29 l0 -105.14 l98.28 0 q29.72 0 50.86 -21.15 q21.14 -21.14 21.14 -51.99 q0 -29.72 -21.14 -52.01 q-21.14 -22.29 -50.86 -22.29 l-1462.85 0 q-30.86 0 -53.15 22.29 q-22.28 22.29 -22.28 52.01 q0 30.85 22.28 51.99 q22.28 21.15 53.15 21.15 l96 0 l0 105.14 q0 165.72 64 317.15 q64 151.42 186.28 265.71 q109.72 107.43 250.29 201.14 q-140.57 98.29 -250.29 201.14 q-122.28 114.29 -186.28 266.86 q-64 152.57 -64 318.29 l0 80 l-96 0 q-30.86 0 -53.15 21.14 q-22.28 21.14 -22.28 50.86 q0 30.85 22.28 52 q22.28 21.14 53.15 21.14 l1462.85 0 q29.72 0 50.86 -21.14 q21.14 -21.14 21.14 -52 q0 -29.72 -21.14 -50.86 q-21.14 -21.14 -50.86 -21.14 l-98.28 0 ZM537.71 147.43 l972.58 0 l0 105.14 q0 138.29 -52.57 261.15 q-52.58 122.86 -153.15 216.57 q-125.71 118.85 -280 219.42 q-162.28 -105.14 -283.43 -219.42 q-98.28 -96 -150.85 -218.86 q-52.58 -122.86 -52.58 -258.86 l0 -105.14 ZM537.71 1822.86 q0 -136 52.58 -260 q52.57 -124 150.85 -220 q130.29 -118.86 283.43 -217.15 q156.57 100.58 280 217.15 q100.57 93.71 153.15 216.57 q52.57 122.86 52.57 261.14 l0 82.29 l-972.58 0 l0 -80 Z"/></svg>