<?xml version="1.0" encoding="utf-8"?><!DOCTYPE svg PUBLIC "-//W3C//DTD SVG 1.1//EN" "http://www.w3.org/Graphics/SVG/1.1/DTD/svg11.dtd"><svg id="_2" width="128" height="128" style="width:128px;height:128px;" version="1.1" xmlns="http://www.w3.org/2000/svg" viewBox="0 0 2048 2048" enable-background="new 0 0 2048 2048" xml:space="preserve"><path fill="#fff" d="M520.43 1197.48 q-23.93 17.4 -28.28 41.87 q-4.35 24.47 8.7 44.05 q15.23 20.66 30.46 40.24 l27.19 38.07 q82.66 120.72 95.71 146.83 q6.52 14.14 16.86 22.84 q10.33 8.7 23.38 13.05 l4.35 2.17 q31.54 8.71 97.34 24.48 q65.8 15.77 154.44 28.82 q88.64 13.05 182.17 13.05 q125.08 0 220.79 -16.32 q95.71 -16.32 201.21 -39.15 l6.53 -2.17 q13.05 -2.18 23.92 -11.97 q10.88 -9.79 18.49 -20.66 q21.76 -46.77 59.83 -109.31 q38.06 -62.54 59.81 -87.55 q91.36 -110.94 139.22 -244.72 q47.86 -133.78 47.86 -276.26 q0 -202.3 -92.45 -379.58 q-92.45 -177.28 -251.79 -289.85 q-159.34 -112.57 -352.93 -134.32 q-35.89 -4.35 -65.8 8.7 q-29.91 13.05 -34.26 44.59 q-4.36 31.54 21.2 54.93 q25.56 23.38 61.45 27.73 q162.06 17.4 294.75 110.94 q132.69 93.53 209.37 240.36 q76.68 146.83 76.68 316.5 q0 118.55 -39.7 230.58 q-39.7 112.03 -115.83 203.39 q-42.42 46.76 -122.91 194.68 q-36.97 8.7 -94.08 18.49 q-57.11 9.79 -128.34 17.94 q-71.23 8.15 -143.02 8.15 q-134.86 0 -349.13 -46.76 l-22.84 -7.62 q-39.15 -75.04 -106.58 -157.7 q-8.7 -13.05 -19.58 -25.02 q-18.49 -26.1 -27.19 -34.8 q-17.4 -18.49 -39.7 -22.84 q-22.3 -4.35 -47.31 14.14 ZM1531.92 1662.98 q-218.61 39.15 -408.95 38.07 q-190.33 -1.09 -396.98 -38.07 q-4.35 -3.26 -9.25 1.63 q-4.89 4.89 -4.89 11.41 q9.79 104.41 66.34 189.25 q56.56 84.83 149.01 133.78 q92.45 48.95 208.83 48.95 q102.23 0 193.59 -48.95 q91.36 -48.94 147.92 -133.78 q56.56 -84.84 65.26 -189.25 q2.17 -4.35 -2.18 -8.7 q-4.35 -4.35 -8.7 -4.35 ZM369.25 660.19 q-4.35 0 -6.52 2.17 q-2.18 2.17 -4.36 4.35 q-16.31 80.49 -75.05 137.04 q-58.73 56.55 -137.03 75.04 q-8.71 2.18 -8.71 10.88 q0 4.35 2.18 7.61 q2.18 3.26 6.53 3.26 q80.48 15.23 137.03 74.5 q56.56 59.27 75.05 139.76 q0 4.35 3.26 6.53 q3.26 2.17 7.62 2.17 q4.35 0 7.62 -2.17 q3.26 -2.17 3.26 -6.53 q16.31 -80.49 75.04 -138.13 q58.73 -57.64 137.04 -76.13 q4.35 0 6.52 -3.26 q2.18 -3.26 2.18 -7.61 q0 -4.35 -2.18 -6.52 q-2.17 -2.17 -6.52 -4.36 q-80.48 -18.49 -137.04 -75.04 q-56.56 -56.55 -75.04 -137.04 q0 -4.35 -3.26 -5.43 q-3.26 -1.09 -7.62 -1.09 ZM741.22 9.79 q-6.53 0 -10.88 4.35 q-4.35 4.35 -6.52 8.7 q-27.2 127.25 -120.74 220.78 q-93.54 93.54 -218.61 120.73 q-6.53 0 -10.88 5.44 q-4.35 5.44 -4.35 11.97 q0 6.52 4.35 10.87 q4.35 4.35 10.88 6.53 q127.25 27.19 219.69 119.64 q92.45 92.45 119.65 219.7 q0 4.35 4.35 8.7 q4.35 4.35 13.05 4.35 q6.52 0 10.87 -4.35 q4.35 -4.35 6.53 -8.7 q27.19 -129.43 119.64 -220.79 q92.45 -91.36 219.7 -118.55 q6.52 -2.18 10.88 -6.53 q4.36 -4.35 4.36 -10.87 q0 -6.53 -4.36 -11.97 q-4.36 -5.44 -10.88 -5.44 q-127.25 -27.19 -219.7 -120.73 q-92.45 -93.53 -119.64 -220.78 q0 -4.35 -5.44 -8.7 q-5.44 -4.35 -11.96 -4.35 Z"/></svg>