<?xml version="1.0" encoding="utf-8"?><!DOCTYPE svg PUBLIC "-//W3C//DTD SVG 1.1//EN" "http://www.w3.org/Graphics/SVG/1.1/DTD/svg11.dtd"><svg id="_1" width="128" height="128" style="width:128px;height:128px;" version="1.1" xmlns="http://www.w3.org/2000/svg" viewBox="0 0 2048 2048" enable-background="new 0 0 2048 2048" xml:space="preserve"><path fill="#fff" d="M285.46 1389.67 q-32.09 11.07 -43.15 35.96 q-11.06 24.89 4.42 59.19 q118.39 246.73 349.63 393.88 q231.25 147.15 506.74 147.15 q256.69 0 474.11 -126.68 q217.41 -126.68 344.1 -343.55 q126.68 -216.86 126.68 -472.45 q0 -240.09 -111.75 -446.44 q-111.75 -206.35 -305.93 -337.46 q-194.18 -131.11 -427.63 -156.56 q-35.41 -4.43 -55.88 12.72 q-20.47 17.15 -22.68 53.67 q-2.21 33.19 14.38 51.44 q16.6 18.25 50.9 22.69 q2.21 0 2.21 0 q0 0 2.22 0 q196.94 23.23 360.14 134.98 q163.2 111.75 257.24 286.57 q94.05 174.81 94.05 378.39 q0 217.97 -107.33 402.19 q-107.33 184.22 -292.1 292.09 q-184.77 107.88 -402.74 107.88 q-233.46 0 -428.19 -122.26 q-194.73 -122.26 -294.31 -331.37 l-6.64 -15.49 q-15.49 -24.34 -37.07 -30.42 q-21.57 -6.09 -51.44 3.87 ZM263.33 709.22 q-5.53 0 -7.74 3.32 q-2.22 3.32 -4.43 7.75 q-17.7 92.94 -84.64 158.77 q-66.94 65.83 -157.67 81.32 q-4.42 3.32 -6.63 6.64 q-2.21 3.32 -2.21 9.96 q0 4.42 2.21 6.63 q2.21 2.22 6.63 4.42 q92.94 17.7 158.78 83.54 q65.84 65.84 83.53 158.77 q0 4.42 3.32 6.64 q3.32 2.21 8.85 2.21 q8.85 0 15.49 -8.85 q17.7 -90.73 83.54 -157.67 q65.83 -66.94 156.56 -84.64 q4.42 0 7.74 -3.32 q3.32 -3.32 3.32 -7.74 q0 -8.85 -11.06 -13.28 q-90.73 -18.81 -156.56 -84.64 q-65.84 -65.83 -83.54 -158.77 q-2.21 -4.43 -5.53 -7.75 q-3.32 -3.32 -9.96 -3.32 ZM679.35 0 q-4.43 0 -8.86 4.42 q-4.42 4.42 -6.63 11.07 q-29.88 140.52 -129.46 240.65 q-99.57 100.13 -237.88 124.47 q-13.27 4.43 -13.27 25.45 q0 4.43 4.43 8.85 q4.43 4.43 8.84 6.64 q140.52 29.87 238.99 128.34 q98.47 98.48 128.35 238.99 q0 6.64 5.53 9.96 q5.53 3.32 9.96 3.32 q12.17 0 16.59 -2.21 q4.43 -2.21 8.86 -11.07 q29.87 -138.3 128.34 -237.88 q98.47 -99.58 236.78 -129.45 q6.64 0 11.07 -4.43 q4.42 -4.43 4.42 -11.06 q0 -12.17 -4.42 -16.59 q-4.43 -4.43 -8.86 -6.65 l-2.21 0 q-138.31 -26.55 -236.78 -126.68 q-98.47 -100.13 -128.34 -240.65 q-4.43 -15.49 -25.45 -15.49 ZM1340.99 1396.31 q9.96 26.56 -1.66 51.45 q-11.62 24.9 -33.74 39.28 q-25.45 11.06 -53.66 -2.77 q-28.22 -13.83 -34.86 -38.17 l-68.6 -172.6 l-271.07 0 l-70.81 172.6 q-11.07 24.34 -35.97 35.96 q-24.89 11.62 -45.91 4.98 q-26.55 -12.17 -37.07 -37.07 q-10.51 -24.89 1.66 -53.66 l262.22 -689.3 q13.28 -24.34 24.89 -31.54 q11.62 -7.19 33.75 -7.19 q21.02 0 35.41 11.62 q14.38 11.62 19.91 29.32 l275.5 687.09 ZM1092.05 1135.2 l-84.09 -216.86 l-85.2 216.86 l169.29 0 ZM1539.04 666.07 q26.56 0 48.13 19.36 q21.58 19.37 21.58 47.03 l0 690.41 q0 27.66 -21.58 48.13 q-21.58 20.47 -48.13 20.47 q-25.45 0 -44.81 -20.47 q-19.36 -20.47 -19.36 -48.13 l0 -690.41 q0 -27.66 19.36 -47.03 q19.36 -19.36 44.81 -19.36 Z"/></svg>